<svg width="32" height="32" viewBox="0 0 32 32" fill="none" xmlns="http://www.w3.org/2000/svg">
<path d="M21.3334 16.64C21.1973 17.3351 20.9448 18.0022 20.5867 18.6133C20.2323 19.2163 19.7609 19.7421 19.2001 20.16C18.4583 20.7146 17.5655 21.0308 16.6401 21.0667C15.726 21.1048 14.8198 20.8828 14.0267 20.4267C13.2182 19.9742 12.5669 19.2858 12.1601 18.4533C11.5201 17.1733 11.3774 15.8227 11.7334 14.4H10.2401L10.3467 21.76C10.3467 21.9027 10.4001 22.044 10.5067 22.1867C10.6134 22.3293 10.7374 22.4 10.8801 22.4H21.9734C22.1161 22.4 22.2574 22.3293 22.4001 22.1867C22.5427 22.044 22.6134 21.9027 22.6134 21.76V14.4H21.1201C21.3334 15.1107 21.4041 15.8573 21.3334 16.64ZM16.4267 19.3067C17.2801 19.3067 18.0267 18.9867 18.6667 18.3467C19.3067 17.7067 19.6267 16.9427 19.6267 16.0533C19.6343 15.1842 19.31 14.3449 18.7201 13.7067C18.1161 13.0307 17.3694 12.6933 16.4801 12.6933C15.5907 12.6933 14.8267 13.0133 14.1867 13.6533C13.5467 14.2933 13.2267 15.0573 13.2267 15.9467C13.2267 16.836 13.5294 17.6173 14.1334 18.2933C14.7374 18.9693 15.4667 19.3067 16.3201 19.3067H16.4267ZM21.9734 9.17333H20.4801C20.3374 9.17333 20.1961 9.244 20.0534 9.38667C19.9107 9.52933 19.8401 9.67067 19.8401 9.81333V11.6267C19.9827 11.9107 20.1961 12.0533 20.4801 12.0533H21.9734C22.1867 12.0533 22.3467 11.9827 22.4534 11.84C22.5522 11.7192 22.6084 11.5693 22.6134 11.4133V9.81333C22.6134 9.67067 22.5427 9.52933 22.4001 9.38667C22.2574 9.244 22.1161 9.17333 21.9734 9.17333ZM16.0001 0C13.0841 0 10.4001 0.710667 7.94673 2.13333C5.52769 3.52127 3.52133 5.52763 2.13339 7.94667C0.710728 10.4 6.10352e-05 13.084 6.10352e-05 16C6.10352e-05 18.916 0.710728 21.6 2.13339 24.0533C3.52133 26.4724 5.52769 28.4787 7.94673 29.8667C10.4001 31.2893 13.0841 32 16.0001 32C18.9161 32 21.6001 31.2893 24.0534 29.8667C26.4724 28.4787 28.4788 26.4724 29.8667 24.0533C31.2894 21.6 32.0001 18.916 32.0001 16C32.0001 13.084 31.2894 10.4 29.8667 7.94667C28.4788 5.52763 26.4724 3.52127 24.0534 2.13333C21.6001 0.710667 18.9161 0 16.0001 0ZM24.3201 22.5067L24.2134 22.6133V22.72C24.2164 22.8886 24.1848 23.056 24.1206 23.212C24.0564 23.3679 23.9609 23.509 23.8401 23.6267C23.5932 23.8745 23.2771 24.0418 22.9334 24.1067H10.0267C9.85334 24.1077 9.6819 24.07 9.52501 23.9962C9.36812 23.9223 9.22975 23.8143 9.12006 23.68C8.87756 23.4084 8.71187 23.077 8.64006 22.72L8.53339 22.5067L8.64006 9.38667C8.64006 9.03067 8.76406 8.71067 9.0134 8.42667C9.26273 8.14267 9.56406 7.964 9.92006 7.89333H22.8267C23.1705 7.95818 23.4865 8.12551 23.7334 8.37333C23.9812 8.6202 24.1485 8.93627 24.2134 9.28L24.3201 22.5067Z" fill="#AEAEAE"/>
</svg>
