<?xml version="1.0" standalone="no"?>
<!DOCTYPE svg PUBLIC "-//W3C//DTD SVG 20010904//EN">
<svg version="1.0" xmlns="http://www.w3.org/2000/svg"
 width="64.000000pt" height="64.000000pt" viewBox="0 0 64.000000 64.000000"
 preserveAspectRatio="xMidYMid meet">

<g transform="translate(0.000000,64.000000) scale(0.100000,-0.100000)"
fill="#FFFFFF" stroke="none">
<path d="M17 542 c-24 -27 -25 -312 -1 -336 13 -13 43 -16 174 -16 l158 0 20
-34 c26 -43 60 -66 109 -73 40 -5 93 10 93 27 0 6 -22 7 -58 4 -53 -6 -60 -4
-90 21 -56 47 -61 125 -11 174 49 50 127 45 174 -10 33 -40 33 -104 0 -104
-16 0 -21 8 -23 42 -3 41 -4 42 -48 49 -54 8 -84 -13 -84 -58 0 -49 65 -89 96
-58 6 6 21 6 41 -2 28 -10 35 -9 54 7 46 42 -1 159 -75 186 l-34 12 -4 80 c-3
64 -7 81 -23 93 -15 11 -65 14 -235 14 -197 0 -218 -2 -233 -18z m346 -84
c-48 -39 -93 -75 -99 -80 -10 -7 -125 76 -198 143 -6 5 76 9 188 9 l197 0 -88
-72z m-228 -28 c54 -44 107 -80 118 -80 11 0 64 36 118 80 54 44 100 80 103
80 4 0 6 -31 6 -69 0 -69 0 -69 -30 -76 -34 -8 -87 -64 -96 -103 -3 -15 -7
-33 -10 -39 -2 -10 -40 -13 -143 -13 -77 0 -146 3 -155 6 -14 5 -16 28 -16
150 0 79 2 144 4 144 2 0 47 -36 101 -80z m393 -208 c-2 -21 -9 -28 -30 -30
-39 -5 -56 30 -28 58 28 28 63 11 58 -28z"/>
</g>
</svg>
