<?xml version="1.0" standalone="no"?>
<!DOCTYPE svg PUBLIC "-//W3C//DTD SVG 20010904//EN">
<svg version="1.0" xmlns="http://www.w3.org/2000/svg"
 width="64.000000pt" height="64.000000pt" viewBox="0 0 64.000000 64.000000"
 preserveAspectRatio="xMidYMid meet">

<g transform="translate(0.000000,64.000000) scale(0.100000,-0.100000)"
fill="#FFFFFF" stroke="none">
<path d="M66 570 c-77 -82 -82 -113 -33 -215 58 -121 171 -233 295 -293 88
-42 155 -51 200 -28 30 15 112 108 112 126 0 9 -154 120 -166 120 -3 0 -23
-19 -44 -42 l-37 -42 -42 27 c-54 36 -116 92 -143 129 l-20 30 37 38 c25 26
36 44 31 55 -11 31 -111 144 -127 144 -9 1 -37 -21 -63 -49z m99 -27 c61 -75
60 -70 26 -109 -17 -19 -31 -44 -31 -55 0 -24 94 -125 161 -175 61 -44 89 -44
127 2 l30 36 61 -41 c70 -48 70 -52 0 -116 -38 -34 -45 -37 -86 -32 -130 14
-319 165 -387 307 -41 86 -42 94 -17 135 19 32 69 85 80 85 3 0 20 -17 36 -37z"/>
</g>
</svg>
