<svg width="32" height="32" viewBox="0 0 32 32" fill="none" xmlns="http://www.w3.org/2000/svg">
<path d="M16.0001 0C13.0841 0 10.4001 0.710667 7.94673 2.13333C5.52769 3.52127 3.52133 5.52763 2.13339 7.94667C0.710728 10.4 6.10352e-05 13.084 6.10352e-05 16C6.10352e-05 18.916 0.710728 21.6 2.13339 24.0533C3.52133 26.4724 5.52769 28.4787 7.94673 29.8667C10.4001 31.2893 13.0841 32 16.0001 32C18.9161 32 21.6001 31.2893 24.0534 29.8667C26.4724 28.4787 28.4788 26.4724 29.8667 24.0533C31.2894 21.6 32.0001 18.916 32.0001 16C32.0001 13.084 31.2894 10.4 29.8667 7.94667C28.4788 5.52763 26.4724 3.52127 24.0534 2.13333C21.6001 0.710667 18.9161 0 16.0001 0ZM24.0001 12.3733V12.9067C24.0001 14.756 23.5561 16.5333 22.6667 18.24C21.7897 19.9337 20.4841 21.368 18.8801 22.4C17.1027 23.5373 15.1107 24.1067 12.9067 24.1067C10.7596 24.1227 8.65181 23.5311 6.82673 22.4H7.78673C9.63606 22.4 11.2707 21.8307 12.6934 20.6933C11.8401 20.6933 11.0761 20.4267 10.4001 19.8933C9.72406 19.36 9.24406 18.6667 8.96006 17.8133L9.70673 18.0267C10.2041 18.0267 10.5601 17.956 10.7734 17.8133C9.86572 17.6809 9.04418 17.2033 8.48006 16.48C7.8916 15.7776 7.57045 14.8897 7.57339 13.9733C8.14273 14.3293 8.74673 14.5067 9.38673 14.5067C8.17739 13.796 7.57339 12.6933 7.57339 11.2C7.57339 10.4893 7.75073 9.81333 8.10673 9.17333C9.17339 10.4533 10.4001 11.4493 11.7867 12.16C13.1944 12.8766 14.7415 13.2771 16.3201 13.3333C16.1774 13.12 16.1067 12.8 16.1067 12.3733C16.1067 11.3067 16.4974 10.3827 17.2801 9.6C18.0627 8.81733 18.9867 8.42667 20.0534 8.42667C21.1201 8.42667 22.1161 8.81733 23.0401 9.6C23.6801 9.45733 24.5334 9.13733 25.6001 8.64C25.3161 9.636 24.7467 10.3467 23.8934 10.7733H24.0001C24.9961 10.56 25.7067 10.3467 26.1334 10.1333C25.4227 11.0573 24.7107 11.804 24.0001 12.3733Z" fill="#AEAEAE"/>
</svg>
